# xmcd
#
# Track frame offsets:
#	150
#	40852
#	69618
#	106067
#	148520
#	178550
#	205257
#	244158
#	279832
#	302898
#	326694
#
# Disc length: 4746 seconds
#
# Revision: 0
# Processed by: cddbd v1.5.2PL0 Copyright (c) Steve Scherf et al.
# Submitted via: EasyCDDAExtractor 2010.6.0.0
#
DISCID=9a12880b
DTITLE=Various Artist - Dance Classics Vol. 47 and 48
DYEAR=2012
DGENRE=Dance
TTITLE0=Lafleur - Boogie Nights (12" Remix)
TTITLE1=Raww - Don't You Try It (12" Version)
TTITLE2=Northend Feat. Michelle Wallace - Happy Days (Extended)
TTITLE3=Surface - When Your X Wants You Back
TTITLE4=Atlantis - Keep On Movin' And Groovin' (12" Version)
TTITLE5=Shannon - Prove Me Right (Vocal Mix)
TTITLE6=Klymaxx - Man Size Love (Man Size Mix)
TTITLE7=Weeks and Company - Rock Your World (Extended)
TTITLE8=Funk Deluxe - This Time (Original 12" Mix)
TTITLE9=Jeff Lorber Band - The Best Part Of The Night (Extended Remix)
TTITLE10=Sharon Redd - In The Name Of Love (12" Version)
EXTD=
EXTT0=
EXTT1=
EXTT2=
EXTT3=
EXTT4=
EXTT5=
EXTT6=
EXTT7=
EXTT8=
EXTT9=
EXTT10=
PLAYORDER=
